<svg width="24" height="14" viewBox="0 0 24 14" fill="none" xmlns="http://www.w3.org/2000/svg">
<path d="M23.6108 5.87002C22.2639 4.143 20.5191 2.71449 18.5653 1.73902C16.5709 0.743257 14.4253 0.226602 12.1855 0.199508C12.1238 0.19782 11.8761 0.19782 11.8144 0.199508C9.57463 0.226648 7.42898 0.743257 5.43455 1.73902C3.48075 2.71449 1.73612 4.14296 0.389118 5.87002C-0.129787 6.53531 -0.129787 7.46461 0.389118 8.1299C1.73607 9.85692 3.48075 11.2854 5.43455 12.2609C7.42898 13.2567 9.57458 13.7733 11.8144 13.8004C11.8761 13.8021 12.1238 13.8021 12.1855 13.8004C14.4252 13.7733 16.5709 13.2567 18.5653 12.2609C20.5191 11.2854 22.2638 9.85696 23.6108 8.1299C24.1297 7.46451 24.1297 6.53531 23.6108 5.87002ZM5.87072 11.3874C4.04635 10.4765 2.41707 9.14245 1.15899 7.52943C0.915851 7.21767 0.915851 6.78225 1.15899 6.47048C2.41702 4.85747 4.0463 3.52341 5.87072 2.61254C6.38887 2.35388 6.918 2.13019 7.45692 1.94082C6.07045 3.18713 5.19694 4.99331 5.19694 6.99994C5.19694 9.00665 6.0705 10.813 7.4571 12.0592C6.91818 11.8699 6.38892 11.6461 5.87072 11.3874ZM12 12.8266C8.78709 12.8266 6.17325 10.2128 6.17325 6.99989C6.17325 3.78699 8.78709 1.17319 12 1.17319C15.2129 1.17319 17.8267 3.78703 17.8267 6.99994C17.8267 10.2128 15.2129 12.8266 12 12.8266ZM22.841 7.52939C21.583 9.1424 19.9537 10.4765 18.1293 11.3873C17.6117 11.6457 17.0829 11.8684 16.5446 12.0576C17.9302 10.8113 18.803 9.00571 18.803 6.99989C18.803 4.99298 17.9293 3.18657 16.5426 1.94026C17.0816 2.12968 17.611 2.35364 18.1293 2.61244C19.9537 3.52332 21.583 4.85738 22.841 6.47039C23.0841 6.7822 23.0841 7.21762 22.841 7.52939Z" fill="#868686"/>
</svg>
